<svg viewBox="0 0 40 40" fill="none" xmlns="http://www.w3.org/2000/svg">
	<path
		d="M24.6608 19.0868H12.9616V14.4105H24.6608C25.3442 14.4105 25.8194 14.5308 26.0578 14.741C26.2963 14.9511 26.444 15.3408 26.444 15.91V17.5891C26.444 18.1889 26.2963 18.5786 26.0578 18.7887C25.8194 18.9988 25.3442 19.0886 24.6608 19.0886V19.0868ZM25.4634 10.0018H8V30H12.9616V23.4937H22.1053L26.444 30H32L27.2164 23.4632C28.98 23.1992 29.7719 22.6533 30.425 21.7536C31.0781 20.8539 31.4056 19.4155 31.4056 17.4957V15.9962C31.4056 14.8577 31.2864 13.958 31.0781 13.2684C30.8699 12.5788 30.514 11.979 30.0086 11.4403C29.4747 10.9302 28.8803 10.5711 28.1667 10.3304C27.4531 10.1203 26.5615 10 25.4634 10V10.0018Z"
		fill="white" />
</svg>