<svg viewBox="0 0 40 40" fill="none" xmlns="http://www.w3.org/2000/svg">
	<path
		d="M20.9502 26.1611L21.1757 26.3243L23.7209 28.2719C24.7948 29.0989 25.858 29.9258 26.9319 30.731C27.63 31.2641 28.5106 30.9703 28.7469 30.1543C28.7791 30.0346 28.8006 29.9258 28.822 29.8061C30.0678 24.0612 31.3171 18.3126 32.57 12.5604L32.9566 10.7542C33.0209 10.5053 33.0136 10.243 32.9356 9.99814C32.8576 9.75331 32.7121 9.53619 32.5163 9.37236C32.3309 9.18981 32.0959 9.06744 31.8415 9.02093C31.5871 8.97441 31.3247 9.00585 31.088 9.11122L27.2219 10.6019L7.67657 18.1856C7.21478 18.3597 7 18.6426 7 19.0452C7 19.4478 7.23626 19.7307 7.71953 19.8939L13.2502 21.798C13.3456 21.841 13.4505 21.8575 13.5542 21.8461C13.658 21.8346 13.7569 21.7955 13.8409 21.7327L27.587 13.2132C27.6306 13.1739 27.6818 13.1442 27.7374 13.1262C27.8303 13.1157 27.9241 13.1347 28.0059 13.1806C28.0381 13.2132 28.0166 13.3547 27.9736 13.4308C27.9307 13.507 27.8555 13.5614 27.7911 13.6158L23.8498 17.3043C21.7127 19.2955 19.5756 21.2757 17.4492 23.2778C17.3364 23.3758 17.2606 23.5103 17.2344 23.6586C17.0948 25.4103 16.9874 27.1621 16.8586 28.903C16.8371 29.1533 16.8478 29.3818 17.0948 29.5123C17.3418 29.6429 17.5566 29.5014 17.7392 29.3165C18.5232 28.5331 19.3179 27.7606 20.0911 26.9663C20.3596 26.6943 20.6066 26.3896 20.8643 26.0958L20.9502 26.1611Z"
		fill="white" />
</svg>