<svg viewBox="0 0 40 40" fill="none" xmlns="http://www.w3.org/2000/svg">
	<path
		d="M33.7945 28.9985H30.5097C29.2675 28.9985 28.8932 27.9823 26.6664 25.7319C24.7203 23.8376 23.8984 23.6021 23.4061 23.6021C22.7252 23.6021 22.5395 23.7911 22.5395 24.7375V27.7207C22.5395 28.5275 22.2804 29 20.1933 29C18.1684 28.8626 16.2048 28.2413 14.4643 27.1874C12.7237 26.1334 11.256 24.6768 10.182 22.9377C7.63275 19.7316 5.85849 15.9695 5 11.95C5 11.4528 5.18713 11.0021 6.12564 11.0021H9.40756C10.2511 11.0021 10.5548 11.3816 10.8859 12.2582C12.4793 16.9946 15.1984 21.1147 16.3025 21.1147C16.7257 21.1147 16.9099 20.9257 16.9099 19.86V14.9811C16.7703 12.7554 15.6 12.5678 15.6 11.7625C15.6148 11.55 15.7111 11.3517 15.8683 11.2097C16.0255 11.0677 16.2314 10.9933 16.4421 11.0021H21.601C22.3064 11.0021 22.5395 11.3568 22.5395 12.2088V18.7944C22.5395 19.5053 22.8418 19.7408 23.0549 19.7408C23.4781 19.7408 23.8034 19.5053 24.5792 18.7232C26.2416 16.6743 27.6003 14.3922 28.6125 11.9485C28.7157 11.6548 28.9113 11.4034 29.1695 11.2327C29.4276 11.062 29.7341 10.9815 30.0419 11.0036H33.3253C34.3098 11.0036 34.5185 11.5008 34.3098 12.2102C33.1153 14.9118 31.6377 17.4764 29.9023 19.86C29.5482 20.4052 29.4071 20.6887 29.9023 21.3284C30.2276 21.8256 31.3791 22.7967 32.1521 23.7198C33.2778 24.8538 34.2119 26.1651 34.9187 27.6015C35.2008 28.5261 34.7316 28.9985 33.7945 28.9985Z"
		fill="white" />
</svg>