<svg width="40" viewBox="0 0 40 40" fill="none" xmlns="http://www.w3.org/2000/svg">
	<path fill-rule="evenodd" clip-rule="evenodd"
		d="M20.0523 30.595C18.1186 30.595 16.2241 30.075 14.5648 29.1L14.1729 28.866L10.0965 29.932L11.1809 25.98L10.9196 25.577C9.84504 23.8702 9.27457 21.8971 9.27337 19.883C9.27337 13.9811 14.1075 9.17106 20.0392 9.17106C22.9136 9.17106 25.6181 10.2891 27.6432 12.3171C28.6461 13.3101 29.4409 14.4914 29.9814 15.7924C30.5219 17.0934 30.7974 18.4883 30.792 19.896C30.8181 25.798 25.9839 30.595 20.0523 30.595ZM23.7497 21.534C24.0372 21.651 25.6312 22.431 25.9578 22.587C26.2844 22.743 26.4804 22.808 26.5719 22.951C26.6633 23.094 26.6633 23.731 26.3889 24.485C26.1276 25.239 24.8342 25.928 24.207 26.019C23.6452 26.097 22.9397 26.136 22.1688 25.889C21.6985 25.746 21.0975 25.551 20.3266 25.213C17.0864 23.822 14.9568 20.572 14.8 20.351L14.7975 20.3477C14.6311 20.127 13.4804 18.6007 13.4804 17.023C13.4804 15.437 14.3166 14.657 14.604 14.3321C14.9045 14.0071 15.2442 13.9291 15.4663 13.9291H16.0935C16.2894 13.9421 16.5638 13.8641 16.8251 14.4881C17.0864 15.138 17.7397 16.724 17.8181 16.88C17.8965 17.036 17.9487 17.218 17.8442 17.439C17.7397 17.647 17.6744 17.79 17.5176 17.972C17.3608 18.154 17.1779 18.388 17.0342 18.531C16.8643 18.7 16.7075 18.869 16.8905 19.194C17.0864 19.519 17.7266 20.572 18.6935 21.43C19.9216 22.522 20.9668 22.873 21.2935 23.029C21.6201 23.198 21.8161 23.172 21.999 22.951C22.1819 22.743 22.796 22.015 23.0181 21.69C23.2402 21.378 23.4492 21.43 23.7497 21.534Z"
		fill="#322105" />
	<path fill-rule="evenodd" clip-rule="evenodd"
		d="M25.0138 7.97554C26.5863 8.62502 28.0131 9.5794 29.2111 10.7831C31.6543 13.2141 33 16.451 33 19.896C33 26.994 27.1859 32.779 20.0523 32.779C17.8834 32.779 15.7538 32.233 13.8593 31.206L7 33L8.82915 26.318C7.70553 24.368 7.10452 22.158 7.10452 19.883C7.10452 12.7851 12.9186 7.00007 20.0523 7.00007C21.7548 6.99446 23.4414 7.32606 25.0138 7.97554ZM14.5648 29.1C16.2241 30.075 18.1186 30.595 20.0523 30.595C25.9839 30.595 30.8181 25.798 30.792 19.896C30.7974 18.4883 30.5219 17.0934 29.9814 15.7924C29.4409 14.4914 28.6461 13.3101 27.6432 12.3171C25.6181 10.2891 22.9136 9.17106 20.0392 9.17106C14.1075 9.17106 9.27337 13.9811 9.27337 19.883C9.27457 21.8971 9.84504 23.8702 10.9196 25.577L11.1809 25.98L10.0965 29.932L14.1729 28.866L14.5648 29.1Z"
		fill="#322105" />
</svg>