<svg viewBox="0 0 135 27" fill="none" xmlns="http://www.w3.org/2000/svg">
	<path
		d="M0 26.0464C1.49315 26.0464 2.54714 25.3541 2.54714 22.8446V12.2011C2.54714 10.4704 1.84448 9.86467 0.175665 9.86467V9.432C2.10798 9.25893 4.30379 8.9128 6.14827 8.04747L6.4996 8.22054V12.1145C7.11443 10.0377 8.60758 7.96094 10.9791 7.96094C12.7357 7.96094 13.8775 9.25893 13.8775 10.5569C13.8775 11.6819 13.087 12.7203 11.7696 12.7203C10.4521 12.7203 10.1007 11.5953 9.74941 10.8165C9.57374 10.2973 9.31024 10.0377 8.87108 10.0377C7.72926 10.0377 6.7631 11.6819 6.4996 13.4125V22.8446C6.4996 25.3541 7.90492 26.0464 9.83724 26.0464V26.479H0V26.0464Z"
		fill="#322105" />
	<path
		d="M21.8697 26.9117C17.5659 26.9117 14.4039 23.6234 13.7891 19.3833L14.3161 19.2968C14.9309 21.9793 16.8632 23.9696 19.9373 23.9696C23.9776 23.9696 26.5248 20.5948 26.5248 15.4893C26.5248 15.3163 26.5248 15.0567 26.5248 14.8836H14.5796C14.5796 11.1627 17.1267 7.96094 21.4305 7.96094C26.3491 7.96094 30.3016 12.028 30.3016 17.4796C30.3016 22.585 26.9639 26.9117 21.8697 26.9117ZM26.3491 14.2779C25.9099 11.1627 23.8898 8.56667 21.694 8.56667C19.3225 8.56667 18.4442 10.9896 18.4442 12.7203C18.4442 13.8452 18.8833 14.3644 19.9373 14.3644H26.3491V14.2779Z"
		fill="#322105" />
	<path
		d="M33.2901 19.5558L31.9726 11.8543C31.5335 9.4314 30.4795 8.73914 28.9863 8.73914V8.30647H37.8574V8.73914C36.4521 8.73914 35.3981 9.4314 35.8373 11.8543L36.8913 18.4308C37.5061 22.0652 38.6479 24.3151 41.3707 24.3151C44.2692 24.3151 47.1677 20.8538 47.1677 16.5271C47.1677 12.6331 45.1475 10.4698 42.249 11.5947C41.0194 12.0274 39.7019 11.3351 39.7019 10.0371C39.6141 8.99874 40.3167 8.04688 41.8099 8.04688C44.7083 8.04688 47.7825 10.4698 47.7825 16.0079C47.7825 22.0652 43.83 26.9111 39.4384 26.9111C36.1008 26.9111 34.1684 24.4882 33.2901 19.5558Z"
		fill="#322105" />
	<path
		d="M49.8887 17.4796C49.8887 12.028 53.8411 7.96094 58.7598 7.96094C63.0635 7.96094 65.6107 11.1627 65.6107 14.8836H53.7533C53.7533 15.0567 53.7533 15.3163 53.7533 15.4893C53.7533 20.5948 56.3004 24.0561 60.3407 23.9696C63.327 23.9696 65.3472 21.9793 65.962 19.2968L66.489 19.3833C65.8742 23.6234 62.6244 26.9117 58.4084 26.9117C53.2263 26.9117 49.8887 22.585 49.8887 17.4796ZM60.1651 14.1913C61.2191 14.1913 61.6582 13.7587 61.6582 12.6337C61.6582 10.9896 60.7799 8.48014 58.4084 8.48014C56.2126 8.48014 54.1925 11.0761 53.7533 14.1913H60.1651Z"
		fill="#322105" />
	<path
		d="M66.3125 26.0464C67.8057 26.0464 68.8596 25.3541 68.8596 22.8446V12.2011C68.8596 10.4704 68.157 9.86467 66.4882 9.86467V9.432C68.4205 9.25893 70.6163 8.9128 72.4608 8.04747L72.8121 8.22054V12.1145C73.4269 10.0377 74.9201 7.96094 77.2916 7.96094C79.0482 7.96094 80.19 9.25893 80.19 10.5569C80.19 11.6819 79.3995 12.7203 78.0821 12.7203C76.7646 12.7203 76.4132 11.5953 76.0619 10.8165C75.8862 10.2973 75.6227 10.0377 75.1836 10.0377C74.0418 10.0377 73.0756 11.6819 72.8121 13.4125V22.8446C72.8121 25.3541 74.2174 26.0464 76.1497 26.0464V26.479H66.3125V26.0464Z"
		fill="#322105" />
	<path
		d="M80.8047 19.3845L81.2438 19.298C82.1222 21.8074 84.0545 26.2206 88.0948 26.3071C90.4663 26.3071 91.7837 24.9226 91.8716 23.192C91.8716 21.4613 90.7298 20.4229 87.8313 19.3845L85.6355 18.5192C82.737 17.4808 80.9803 15.8366 80.9803 13.0676C81.0682 10.1255 83.8788 7.96213 87.3921 7.96213C90.8176 7.96213 92.3107 10.1255 93.0134 7.78906H93.5404L93.9796 14.7982L93.4526 14.8848C92.7499 12.3753 90.4663 8.56786 87.3043 8.56786C85.2841 8.56786 83.9667 9.86586 83.9667 11.51C83.9667 13.1541 85.1963 14.279 87.8313 15.1444L89.9393 16.0097C93.2769 17.2212 94.8579 18.7788 94.7701 21.3748C94.6822 24.9226 91.4324 26.9129 88.1826 26.9129C84.4058 26.8263 82.737 24.7496 81.8587 26.9994H81.3317L80.8047 19.3845Z"
		fill="#322105" />
	<path
		d="M107.33 26.0465C109.086 26.0465 110.404 25.3542 110.053 22.9313L108.911 14.7106C108.472 11.855 107.33 10.1244 105.134 10.1244C103.202 10.1244 101.796 11.9416 101.533 14.0184V22.8447C101.533 25.3542 102.587 26.0465 104.08 26.0465V26.4791H95.0332V26.0465C96.5264 26.0465 97.5803 25.3542 97.5803 22.8447V4.24012C97.5803 2.50946 96.8777 1.90373 95.2089 1.90373V1.38453C97.1412 1.21146 99.337 0.865331 101.181 0L101.533 0.173066V12.4608C102.148 9.95131 104.256 7.96105 107.066 7.96105C110.14 7.96105 112.248 10.0378 112.863 14.6241L114.093 22.9313C114.444 25.3542 115.498 26.0465 116.991 26.0465V26.4791H107.33V26.0465Z"
		fill="#322105" />
	<path
		d="M128.237 23.1042L128.149 22.3254C127.71 24.5753 125.514 26.9117 122.176 26.9117C119.102 26.9117 116.906 24.9214 116.906 22.2389C116.906 19.816 118.663 18.0853 121.913 17.8257L127.446 17.393L127.183 15.5759C126.743 12.2876 125.25 10.1243 122.44 10.1243C120.332 10.1243 118.663 11.4223 117.872 13.326L117.433 13.2395C118.136 10.73 120.771 7.96094 124.46 7.96094C128.149 7.96094 130.432 10.2973 131.047 14.624L132.101 22.585C132.277 24.1426 132.98 24.5753 133.594 24.5753C134.121 24.5753 134.473 24.1426 134.561 23.5369H135C134.912 25.0945 133.77 26.8252 131.75 26.8252C129.554 26.8252 128.5 25.3541 128.237 23.1042ZM124.021 24.7484C126.392 24.7484 127.797 23.1042 127.973 21.4601L127.446 17.9122L123.845 18.1718C121.649 18.3449 120.507 19.6429 120.507 21.3736C120.507 23.1042 121.825 24.7484 124.021 24.7484Z"
		fill="#322105" />
</svg>