<svg viewBox="0 0 135 28" fill="none" xmlns="http://www.w3.org/2000/svg">
	<path
		d="M0 26.4362C1.49315 26.4362 2.54714 25.7336 2.54714 23.1866V12.3837C2.54714 10.6271 1.84448 10.0123 0.175665 10.0123V9.57316C2.10798 9.3975 4.30379 9.04619 6.14827 8.16791L6.4996 8.34356V12.2958C7.11443 10.188 8.60758 8.08008 10.9791 8.08008C12.7357 8.08008 13.8775 9.3975 13.8775 10.7149C13.8775 11.8567 13.087 12.9106 11.7696 12.9106C10.4521 12.9106 10.1007 11.7689 9.74941 10.9784C9.57374 10.4514 9.31024 10.188 8.87108 10.188C7.72926 10.188 6.7631 11.8567 6.4996 13.6133V23.1866C6.4996 25.7336 7.90492 26.4362 9.83724 26.4362V26.8754H0V26.4362Z"
		fill="#322105" />
	<path
		d="M21.8706 27.3145C17.5668 27.3145 14.4049 23.977 13.79 19.6734L14.317 19.5856C14.9319 22.3083 16.8642 24.3283 19.9383 24.3283C23.9786 24.3283 26.5258 20.903 26.5258 15.7211C26.5258 15.5455 26.5258 15.282 26.5258 15.1063H14.5805C14.5805 11.3297 17.1277 8.08008 21.4315 8.08008C26.3501 8.08008 30.3025 12.208 30.3025 17.7412C30.3025 22.9231 26.9649 27.3145 21.8706 27.3145ZM26.3501 14.4915C25.9109 11.3297 23.8908 8.69488 21.695 8.69488C19.3235 8.69488 18.4452 11.1541 18.4452 12.9106C18.4452 14.0524 18.8843 14.5794 19.9383 14.5794H26.3501V14.4915Z"
		fill="#322105" />
	<path
		d="M33.2901 19.8491L31.9726 12.0324C31.5335 9.57322 30.4795 8.8706 28.9863 8.8706V8.43145H37.8574V8.8706C36.4521 8.8706 35.3981 9.57322 35.8373 12.0324L36.8913 18.7074C37.5061 22.3962 38.6479 24.6797 41.3707 24.6797C44.2692 24.6797 47.1677 21.1666 47.1677 16.7752C47.1677 12.8229 45.1475 10.6272 42.249 11.7689C41.0194 12.2081 39.7019 11.5054 39.7019 10.188C39.6141 9.13408 40.3167 8.16797 41.8099 8.16797C44.7083 8.16797 47.7825 10.6272 47.7825 16.2482C47.7825 22.3962 43.83 27.3146 39.4384 27.3146C36.1008 27.3146 34.1684 24.8554 33.2901 19.8491Z"
		fill="#322105" />
	<path
		d="M49.8887 17.7412C49.8887 12.208 53.8411 8.08008 58.7598 8.08008C63.0635 8.08008 65.6107 11.3297 65.6107 15.1063H53.7533C53.7533 15.282 53.7533 15.5455 53.7533 15.7211C53.7533 20.903 56.3004 24.4162 60.3407 24.3283C63.327 24.3283 65.3472 22.3083 65.962 19.5856L66.489 19.6734C65.8742 23.977 62.6244 27.3145 58.4084 27.3145C53.2263 27.3145 49.8887 22.9231 49.8887 17.7412ZM60.1651 14.4915C61.2191 14.4915 61.6582 13.9646 61.6582 12.8228C61.6582 11.1541 60.7799 8.60705 58.4084 8.60705C56.2126 8.60705 54.1925 11.2419 53.7533 14.4037H60.1651V14.4915Z"
		fill="#322105" />
	<path
		d="M66.3135 26.4362C67.8066 26.4362 68.8606 25.7336 68.8606 23.1866V12.3837C68.8606 10.6271 68.158 10.0123 66.4891 10.0123V9.57316C68.4215 9.3975 70.6173 9.04619 72.4618 8.16791L72.8131 8.34356V12.2958C73.4279 10.188 74.9211 8.08008 77.2925 8.08008C79.0492 8.08008 80.191 9.3975 80.191 10.7149C80.191 11.8567 79.4005 12.9106 78.083 12.9106C76.7655 12.9106 76.4142 11.7689 76.0629 10.9784C75.8872 10.4514 75.6237 10.188 75.1846 10.188C74.0427 10.188 73.0766 11.8567 72.8131 13.6133V23.1866C72.8131 25.7336 74.2184 26.4362 76.1507 26.4362V26.8754H66.3135V26.4362Z"
		fill="#322105" />
	<path
		d="M80.8057 19.6753L81.2448 19.5874C82.1232 22.1344 84.0555 26.6137 88.0958 26.7015C90.4672 26.7015 91.7847 25.2963 91.8726 23.5397C91.8726 21.7831 90.7307 20.7292 87.8323 19.6753L85.6365 18.797C82.738 17.743 80.9813 16.0743 80.9813 13.2638C81.0692 10.2776 83.8798 8.08191 87.3931 8.08191C90.8186 8.08191 92.3117 10.2776 93.0144 7.90625H93.5414L93.9805 15.0203L93.4535 15.1082C92.7509 12.5612 90.4672 8.69671 87.3053 8.69671C85.2851 8.69671 83.9676 10.0141 83.9676 11.6829C83.9676 13.3516 85.1973 14.4934 87.8323 15.3717L89.9402 16.2499C93.2779 17.4795 94.8589 19.0605 94.771 21.6953C94.6832 25.2963 91.4334 27.3163 88.1836 27.3163C84.4068 27.2285 82.738 25.1206 81.8597 27.4042H81.3327L80.8057 19.6753Z"
		fill="#322105" />
	<path
		d="M107.33 26.4363C109.086 26.4363 110.404 25.7337 110.053 23.2745L108.911 14.9308C108.472 12.0325 107.33 10.2759 105.134 10.2759C103.202 10.2759 101.796 12.1203 101.533 14.2282V23.1867C101.533 25.7337 102.587 26.4363 104.08 26.4363V26.8755H95.0332V26.4363C96.5264 26.4363 97.5803 25.7337 97.5803 23.1867V4.30359C97.5803 2.54702 96.8777 1.93222 95.2089 1.93222V1.40525C97.1412 1.2296 99.337 0.878284 101.181 0L101.533 0.175657V12.6473C102.148 10.1003 104.256 8.08021 107.066 8.08021C110.14 8.08021 112.248 10.1881 112.863 14.843L114.093 23.2745C114.444 25.7337 115.498 26.4363 116.991 26.4363V26.8755H107.33V26.4363Z"
		fill="#322105" />
	<path
		d="M128.237 23.45L128.149 22.6596C127.71 24.9431 125.514 27.3145 122.176 27.3145C119.102 27.3145 116.906 25.2944 116.906 22.5718C116.906 20.1126 118.663 18.356 121.913 18.0925L127.446 17.6534L127.183 15.809C126.743 12.4715 125.25 10.2758 122.44 10.2758C120.332 10.2758 118.663 11.5932 117.872 13.5254L117.433 13.4376C118.136 10.8906 120.771 8.08008 124.46 8.08008C128.149 8.08008 130.432 10.4514 131.047 14.8429L132.101 22.9231C132.277 24.504 132.98 24.9431 133.594 24.9431C134.121 24.9431 134.473 24.504 134.561 23.8892H135C134.912 25.4701 133.77 27.2267 131.75 27.2267C129.554 27.2267 128.5 25.7336 128.237 23.45ZM124.021 25.1188C126.392 25.1188 127.797 23.45 127.973 21.7813L127.446 18.1803L123.845 18.4438C121.649 18.6195 120.507 19.9369 120.507 21.6935C120.507 23.45 121.825 25.1188 124.021 25.1188Z"
		fill="#322105" />
</svg>